# xmcd
#
# Track frame offsets:
# 150
# 26448
# 42875
# 61184
# 75154
# 91741
# 108483
# 127653
# 139480
# 159044
# 177067
#
# Disc length: 2508 seconds
#
#
# Revision: 0
# Processed by: cddbd v1.5.1PL2 Copyright (c) Steve Scherf et al.
# Submitted via: FreeRIP 2.942 
#
DISCID=7209ca0b
DTITLE=Deborah Magone - Deborah Magone
DYEAR=1999
DGENRE=Blues
TTITLE0=Turtle Blues
TTITLE1=The Girl Next Door
TTITLE2=Little Red Rooster
TTITLE3=JO' Mama
TTITLE4=Habit With You
TTITLE5=Cookin'
TTITLE6=One Love
TTITLE7=Sitting On Top Of The World
TTITLE8=Love Me Like A Man
TTITLE9=Forever
TTITLE10=No More
EXTD=
EXTT0=
EXTT1=
EXTT2=
EXTT3=
EXTT4=
EXTT5=
EXTT6=
EXTT7=
EXTT8=
EXTT9=
EXTT10=
PLAYORDER=
